<svg height='300px' width='300px'  fill="#000000" xmlns="http://www.w3.org/2000/svg" xmlns:xlink="http://www.w3.org/1999/xlink" version="1.1" x="0px" y="0px" viewBox="0 0 26 26" style="enable-background:new 0 0 26 26;" xml:space="preserve"><g><path d="M17.8433762,4.0268607c-3.848053-3.8480532-10.097559-3.8507512-13.9462891,0   C0.044548,7.8793998,0.0396652,14.144537,3.8873215,17.9921932c2.8618064,2.861805,7.3019276,3.7770882,11.2277832,1.9277954   l3.0144043,3.5057983c1.4324818,1.77882,4.1028042,1.9279919,5.7353516,0.3085938   c0.0009766-0.0009766,0.0019531-0.0019531,0.0029297-0.0029297c1.6283741-1.6283741,1.4573593-4.3184452-0.2822266-5.71875   l-3.6396484-3.1223755C21.5203781,11.1987972,20.7100754,6.893621,17.8433762,4.0268607z M5.301384,16.5781307   c-3.0673828-3.0678711-3.0634766-8.0639648,0.0097656-11.137207c3.0674686-3.0674686,8.0504961-3.0676672,11.1181641,0   c2.9894123,2.9894128,3.1750908,7.9228625,0.0097656,11.1367188C13.3604136,19.6531239,8.3751316,19.6518784,5.301384,16.5781307z    M22.4556808,22.3154354c-0.7561264,0.7484112-2.0391979,0.7590637-2.7890625-0.1689453l-2.8193359-3.2797852   c0.0097656-0.0073853,0.0179443-0.0166626,0.02771-0.0241089c0.3465576-0.2643433,0.6763916-0.548645,0.9840088-0.8557739   c0.3876019-0.3946381,0.8753853-0.9969063,1.0957031-1.3120117l3.3515625,2.875   C23.1635838,20.2396984,23.2357502,21.5333385,22.4556808,22.3154354z"></path><path d="M16.1334152,8.5097713c0-0.5522466-0.4472656-1.0000005-1-1.0000005h-4.4296875   c-0.3808594,0-0.7285156,0.2167969-0.8974609,0.5585942l-1.6591797,3.3720703l-0.2822266-0.4604492   c-0.1816406-0.296875-0.5048828-0.4775391-0.8525391-0.4775391H5.9459152c-0.5527344,0-1,0.4477539-1,1s0.4472656,1,1,1h0.5058594   l0.9384766,1.5307617c0.1826172,0.2973633,0.5058594,0.4775391,0.8525391,0.4775391   c0.3794918,0,0.7284966-0.2155457,0.8974609-0.5585938l2.1855469-4.4423828h3.8076172   C15.6861496,9.5097713,16.1334152,9.0620174,16.1334152,8.5097713z"></path></g></svg>