<svg height='300px' width='300px'  fill="#000000" xmlns="http://www.w3.org/2000/svg" xmlns:xlink="http://www.w3.org/1999/xlink" version="1.1" x="0px" y="0px" viewBox="0 0 64 64" style="enable-background:new 0 0 64 64;" xml:space="preserve"><g><path d="M61,6.5h-4v-3c0-0.5522461-0.4472656-1-1-1c-0.4924927,0-11.9273071,0.0483398-18.1958618,3.9423218   c-2.7366943-0.5348511-9.8898315-1.7967529-12.1025391-0.8914185C25.5361938,5.5256348,25.3706055,5.5,25.1982422,5.5H10.8017578   c-1.8457031,0-3.3476563,1.5014648-3.3476563,3.347168v0.4482422c0,1.6333618,1.1777344,2.9927368,2.7275391,3.2849731v19.2052612   c0,0.8803711-0.3105469,1.7553711-0.8730469,2.4633789L4.9453125,39.734375C3.0458984,42.121582,2,45.0825195,2,48.0712891   v2.1430664c0,0.6317749,0.1865845,1.217041,0.4882202,1.7324219C2.201416,52.1225586,2,52.4246216,2,52.7856445V60.5   c0,0.5522461,0.4472656,1,1,1h30c0.5527344,0,1-0.4477539,1-1v-7.7143555c0-0.3610229-0.201355-0.6630859-0.4882202-0.8389282   C33.8133545,51.4313354,34,50.8460693,34,50.2143555v-2.1430664c0-1.7962646-0.3846436-3.5799561-1.0983887-5.2376099   c1.699707,0.4463501,3.8007202,1.2244873,4.7272949,1.5950317c0.012146,0.0048218,0.0249023,0.0028076,0.0371094,0.0071411   C37.7744141,44.4743652,37.8861694,44.5,38,44.5c0.1224976,0,0.2399292-0.0297241,0.3526611-0.0726318   c0.0132446-0.0050659,0.027832-0.0028076,0.0408936-0.0084229c6.7011719-2.8710938,22.3857422-1.9301758,22.5439453-1.9208984   c0.2861328,0.0170898,0.5458984-0.0805664,0.7470703-0.269043C61.8857422,42.0395508,62,41.7758789,62,41.5v-34   C62,6.9477539,61.5527344,6.5,61,6.5z M55,7.5v27.0834961c-0.1818237,0.0171509-0.3894653,0.0374756-0.6159058,0.0604248   c-0.0804443,0.0081787-0.1719971,0.0180664-0.2576904,0.0269775c-0.1623535,0.0168457-0.3253784,0.0339355-0.5053101,0.0535889   c-0.1015625,0.0111084-0.2104492,0.0237427-0.3172607,0.0357056c-0.1792603,0.0201416-0.3595581,0.0407104-0.5524902,0.0634766   c-0.12677,0.0150146-0.2579346,0.0311279-0.3901367,0.0472412c-0.1885376,0.0229492-0.3788452,0.0466309-0.5775757,0.0720215   c-0.1451416,0.0185547-0.291626,0.0378418-0.4417725,0.0576782c-0.2052002,0.0270996-0.4133911,0.055603-0.6268921,0.0852051   c-0.1521606,0.0211182-0.3034668,0.0424194-0.4593506,0.0648193c-0.2230835,0.0320435-0.4498291,0.0661011-0.6796265,0.1008911   c-0.1566772,0.0236816-0.3112793,0.046936-0.4707031,0.0719604c-0.2479858,0.0388794-0.4996948,0.0804443-0.7531128,0.1225586   c-0.1463013,0.024292-0.2901611,0.0474243-0.4379272,0.0728149c-0.302063,0.0518188-0.6071167,0.1072998-0.9135132,0.1637573   c-0.1028442,0.0189209-0.2041626,0.0363159-0.307312,0.0557861c-0.4160156,0.0785522-0.8339233,0.1610107-1.25177,0.2483521   c-0.0239868,0.0050659-0.0478516,0.0107422-0.0718994,0.0157471c-0.3875122,0.0814209-0.7739868,0.1668091-1.1582642,0.2560425   c-0.1173096,0.0272217-0.2322388,0.0567627-0.348999,0.0847778c-0.2888184,0.0692749-0.5762939,0.1394653-0.8603516,0.2133789   c-0.1422729,0.0369873-0.2810059,0.0760498-0.4216919,0.1142578c-0.255188,0.0692749-0.5081787,0.1395264-0.7570801,0.2127075   c-0.1478882,0.0435181-0.2921143,0.088501-0.4373779,0.1334229c-0.2342529,0.0724487-0.4648438,0.1462402-0.6912842,0.2224121   c-0.1459351,0.0490723-0.2888794,0.098938-0.4311523,0.1495972c-0.2165527,0.0770874-0.4269409,0.156189-0.6340332,0.2369995   c-0.1380615,0.053894-0.2749634,0.1078491-0.4083862,0.1633911C39.1489868,37.819519,39.0707397,37.8474121,39,37.8779297   V8.0498047c4.7871094-2.8833008,13.1328125-3.425293,16-3.5263672V7.5z M37,38.2216797   C34.421875,37.5874023,29.8720703,36.5,29,36.5c-0.1573486,0-0.2999878,0.0440063-0.4312134,0.1087646l-1.8764038-2.3592529   c-0.5722656-0.7192383-0.8740234-1.5712891-0.8740234-2.4638672V12.5803833   c1.5498047-0.2922363,2.7275391-1.6516113,2.7275391-3.2849731V8.847168c0-0.5950928-0.1691284-1.1462402-0.4425659-1.6309814   C30.1967163,7.2415771,33.7567749,7.7108765,37,8.3242188V38.2216797z M9.4541016,9.2954102V8.847168   c0-0.7426758,0.6044922-1.347168,1.3476563-1.347168h14.3964844c0.7431641,0,1.3476563,0.6044922,1.3476563,1.347168v0.4482422   c0,0.7431641-0.6044922,1.3476563-1.3476563,1.3476563h-0.3798828H11.1816406h-0.3798828   C10.0585938,10.6430664,9.4541016,10.0385742,9.4541016,9.2954102z M10.8730469,35.4941406   c0.84375-1.0605469,1.3085938-2.3774414,1.3085938-3.7084961V12.6430664h11.6367188v19.1425781   c0,1.3300781,0.4648438,2.6469727,1.3085938,3.7084961l4.0258179,5.0611572   c-5.6749878,2.0098267-7.0358276,0.961853-8.8724976-0.4815674c-1.9120483-1.5031738-4.2559204-3.3280029-10.8848267-2.7220459   L10.8730469,35.4941406z M4,48.0712891c0-2.5385742,0.8916016-5.0571289,2.5097656-7.0917969l1.1149292-1.4016724   c7.3825684-1.0914917,9.5303345,0.583313,11.4202271,2.0681763c1.4765625,1.1606445,2.8320313,2.0219727,5.0722656,2.0219727   c1.5453491,0,3.5189819-0.4159546,6.2364502-1.4197998c0.0019531,0.001709,0.0044556,0.0026855,0.0064697,0.0043335   C31.4193726,44.0217896,32,46.0379028,32,48.0712891v2.1430664c0,0.8662109-0.7753906,1.5712891-1.7275391,1.5712891H5.7275391   C4.7753906,51.7856445,4,51.0805664,4,50.2143555V48.0712891z M32,59.5H4v-5.7143555h1.7275391h24.5449219H32V59.5z    M31.0546875,39.734375l-0.8133545-1.022644c1.5362549,0.3141479,4.1925659,0.93573,6.758667,1.5701904v1.7678833   c-1.4769897-0.5396729-3.7817993-1.3103027-5.3515625-1.5015259C31.4597168,40.2713013,31.2645264,39.9980469,31.0546875,39.734375   z M60,40.4467773c-3.4785156-0.1572266-14.5166016-0.4570313-21,1.6186523v-1.9782715   c0.3197021-0.1665039,0.6660767-0.3264771,1.0355225-0.4796753c0.0373535-0.0155029,0.0773315-0.0301514,0.1151733-0.0455322   c0.1513672-0.0614624,0.3041382-0.1225586,0.4624634-0.1818848c0.055603-0.020874,0.1141357-0.0407104,0.1705322-0.0612793   c0.1431885-0.0523071,0.2865601-0.1045532,0.4346313-0.1550903c0.0736084-0.0252075,0.1501465-0.0491943,0.2249146-0.0739746   c0.1348267-0.0446167,0.2692261-0.0894165,0.4074097-0.1327515c0.0843506-0.0264282,0.1712036-0.0518188,0.2567749-0.0777588   c0.1326294-0.0402222,0.2647705-0.0806885,0.3999634-0.119751c0.0889893-0.0256958,0.1800537-0.0504761,0.2700806-0.0756836   c0.1358643-0.0380249,0.2714844-0.0762329,0.4094849-0.1131592c0.0895386-0.0239258,0.180542-0.0469971,0.270874-0.0704956   c0.1408691-0.0366211,0.2816162-0.0733032,0.4241943-0.1087646c0.0941162-0.0234375,0.1893311-0.0460205,0.2841187-0.0689697   c0.1387939-0.0335693,0.2774658-0.0671387,0.4174194-0.0996704c0.0996094-0.0231934,0.1999512-0.0455933,0.3000488-0.0681763   c0.1399536-0.0316162,0.2798462-0.0632324,0.4205322-0.093811c0.0960693-0.0209351,0.1923828-0.0411377,0.2886963-0.0615234   c0.1445923-0.0306396,0.2892456-0.0612183,0.4342651-0.0908203c0.097168-0.0198364,0.194397-0.0391235,0.291687-0.0584717   c0.1431885-0.0285034,0.2863159-0.0569458,0.4293823-0.0844116c0.0991211-0.019043,0.1980591-0.0375977,0.2969971-0.0562134   c0.1422729-0.0266724,0.2844849-0.0531616,0.4262695-0.0788574c0.0971069-0.0176392,0.1939087-0.0348511,0.2907104-0.052002   c0.1433105-0.0254517,0.286377-0.0504761,0.4287109-0.0748901c0.0946045-0.0162354,0.1888428-0.0321045,0.28302-0.0479126   c0.1436768-0.0241089,0.2868652-0.0477905,0.4291382-0.0709229c0.0889282-0.0144653,0.1774292-0.0286255,0.265686-0.0426636   c0.1484985-0.0236206,0.2961426-0.046814,0.4425659-0.0693359c0.0787964-0.012085,0.1572266-0.0241089,0.2353516-0.0359497   c0.1525879-0.0230713,0.303833-0.0455322,0.4536133-0.0674438c0.0715332-0.010437,0.1428833-0.020813,0.2137451-0.0310059   c0.1522827-0.0218506,0.3027344-0.0432129,0.4514771-0.0638428c0.0674438-0.0093994,0.1348877-0.0187378,0.2015381-0.0278931   c0.1449585-0.0198364,0.2875977-0.0390015,0.4285278-0.0576782c0.0678711-0.0089722,0.1359253-0.0180664,0.2028198-0.0267944   c0.1429443-0.0186768,0.2831421-0.0366211,0.4212646-0.0540161c0.0558472-0.0070801,0.1120605-0.0141602,0.1670532-0.0210571   c0.1443481-0.0180054,0.2851563-0.0351563,0.4234009-0.0518188c0.0473022-0.0057373,0.0952759-0.0115356,0.1417847-0.0170898   c0.1434937-0.0170898,0.2827148-0.0333252,0.4187012-0.0489502c0.0352173-0.0040283,0.0714111-0.0083618,0.1061401-0.0122681   c0.1358643-0.0154419,0.2662354-0.0299683,0.3935547-0.0440063c0.0360718-0.0039673,0.0735474-0.0081787,0.1088867-0.0120239   c0.1235962-0.0134277,0.241333-0.026062,0.3557739-0.0380859c0.0300903-0.0031738,0.0618286-0.0065918,0.0913086-0.0096436   c0.1293945-0.0135498,0.2525635-0.026062,0.3687744-0.0377808c0.0082397-0.0007935,0.017395-0.0018311,0.0255737-0.0026245   c0.1224976-0.0122681,0.2367554-0.0234985,0.3432007-0.0337524c0.0043945-0.0004272,0.0095215-0.0009155,0.013916-0.0013428   c0.5535278-0.0532227,0.8795166-0.0790405,0.8994751-0.0805664C56.5976563,36.4570313,57,36.0224609,57,35.5v-27h3V40.4467773z"></path><path d="M42.9990234,11.5c0.0410156,0,0.0830078-0.0024414,0.125-0.0078125l8-1   c0.5478516-0.0683594,0.9365234-0.5683594,0.8681641-1.1162109s-0.5634766-0.9414063-1.1162109-0.8681641l-8,1   c-0.5478516,0.0683594-0.9365234,0.5683594-0.8681641,1.1162109C42.0712891,11.1298828,42.5019531,11.5,42.9990234,11.5z"></path><path d="M42.9990234,17.5c0.0410156,0,0.0830078-0.0024414,0.125-0.0078125l8-1   c0.5478516-0.0683594,0.9365234-0.5683594,0.8681641-1.1162109s-0.5634766-0.9389648-1.1162109-0.8681641l-8,1   c-0.5478516,0.0683594-0.9365234,0.5683594-0.8681641,1.1162109C42.0712891,17.1298828,42.5019531,17.5,42.9990234,17.5z"></path><path d="M42.9990234,23.5c0.0410156,0,0.0830078-0.0024414,0.125-0.0078125l8-1   c0.5478516-0.0683594,0.9365234-0.5683594,0.8681641-1.1162109c-0.0683594-0.5473633-0.5634766-0.9370117-1.1162109-0.8681641l-8,1   c-0.5478516,0.0683594-0.9365234,0.5683594-0.8681641,1.1162109C42.0712891,23.1298828,42.5019531,23.5,42.9990234,23.5z"></path></g></svg>