<svg height='300px' width='300px'  fill="#000000" xmlns="http://www.w3.org/2000/svg" xmlns:xlink="http://www.w3.org/1999/xlink" version="1.1" x="0px" y="0px" viewBox="0 0 64 64" style="enable-background:new 0 0 64 64;" xml:space="preserve"><g><g><path d="M36,38.453V27.829c1.164-0.413,2-1.525,2-2.829c0-1.654-1.346-3-3-3H21c-1.654,0-3,1.346-3,3c0,1.304,0.836,2.416,2,2.829    v10.624L7.874,56.177c-1.051,1.535-1.164,3.511-0.297,5.156C8.445,62.978,10.14,64,12,64h32c1.86,0,3.555-1.022,4.423-2.667    c0.867-1.646,0.754-3.621-0.297-5.156L36,38.453z M46.653,60.399C46.133,61.387,45.116,62,44,62H12    c-1.116,0-2.133-0.613-2.653-1.601c-0.521-0.986-0.452-2.172,0.178-3.094l12.301-17.979C21.939,39.161,22,38.964,22,38.763V27    c0-0.552-0.447-1-1-1c-0.552,0-1-0.449-1-1s0.448-1,1-1h14c0.552,0,1,0.449,1,1s-0.448,1-1,1c-0.553,0-1,0.448-1,1v11.763    c0,0.201,0.06,0.398,0.175,0.564l12.301,17.979C47.105,58.228,47.174,59.413,46.653,60.399z"></path><path d="M55.242,17.757L42.35,4.865C42.771,4.337,43,3.686,43,3c0-0.801-0.313-1.555-0.879-2.121    c-1.133-1.134-3.109-1.134-4.242,0l-8,7.999C29.312,9.445,29,10.199,29,11s0.312,1.555,0.879,2.121    c1.052,1.052,2.841,1.143,3.986,0.229l12.893,12.893C47.891,27.376,49.396,28,51,28c1.603,0,3.109-0.624,4.242-1.757    C56.376,25.109,57,23.603,57,22S56.376,18.891,55.242,17.757z M53.828,24.829c-1.51,1.511-4.146,1.511-5.656,0L34.586,11.242    c-0.188-0.188-0.441-0.293-0.707-0.293c-0.266,0-0.519,0.106-0.707,0.293l-0.465,0.465c-0.379,0.378-1.035,0.378-1.414,0    C31.103,11.518,31,11.267,31,11s0.103-0.518,0.293-0.707l8-8c0.379-0.378,1.035-0.378,1.414,0C40.896,2.482,41,2.733,41,3    s-0.104,0.518-0.293,0.707l-0.465,0.465c-0.188,0.188-0.293,0.442-0.293,0.707s0.105,0.519,0.293,0.707l13.586,13.586    C54.584,19.927,55,20.932,55,22S54.584,24.073,53.828,24.829z"></path><path d="M42.535,9.293C42.348,9.106,42.094,9,41.828,9h-5.656c-0.404,0-0.77,0.244-0.924,0.617    c-0.155,0.374-0.069,0.804,0.217,1.09l13.414,13.414C49.445,24.688,50.199,25,51,25c0.801,0,1.555-0.312,2.121-0.878    C53.687,23.555,54,22.801,54,22s-0.313-1.555-0.879-2.121L42.535,9.293z M51.707,22.707c-0.379,0.378-1.035,0.378-1.414,0    L38.586,11h2.828l10.293,10.294C51.896,21.482,52,21.733,52,22S51.896,22.518,51.707,22.707z"></path><path d="M23,17c0,1.654,1.346,3,3,3c1.654,0,3-1.346,3-3s-1.346-3-3-3C24.346,14,23,15.346,23,17z M27,17c0,0.551-0.448,1-1,1    c-0.552,0-1-0.449-1-1s0.448-1,1-1C26.552,16,27,16.449,27,17z"></path><path d="M24,6c1.654,0,3-1.346,3-3s-1.346-3-3-3c-1.654,0-3,1.346-3,3S22.346,6,24,6z M24,2c0.552,0,1,0.449,1,1s-0.448,1-1,1    c-0.552,0-1-0.449-1-1S23.448,2,24,2z"></path><path d="M19,14c1.654,0,3-1.346,3-3s-1.346-3-3-3c-1.654,0-3,1.346-3,3S17.346,14,19,14z M19,10c0.552,0,1,0.449,1,1s-0.448,1-1,1    c-0.552,0-1-0.449-1-1S18.448,10,19,10z"></path><path d="M35.246,44.436C35.06,44.163,34.751,44,34.421,44H21.579c-0.33,0-0.639,0.163-0.825,0.436l-9.579,14    c-0.21,0.306-0.232,0.703-0.06,1.031C11.288,59.795,11.629,60,12,60h32c0.371,0,0.712-0.205,0.885-0.533    c0.173-0.328,0.15-0.726-0.06-1.031L35.246,44.436z M13.895,58l8.211-12h11.787l8.211,12H13.895z"></path></g></g></svg>