<svg height='300px' width='300px'  fill="#000000" xmlns="http://www.w3.org/2000/svg" xmlns:xlink="http://www.w3.org/1999/xlink" version="1.1" x="0px" y="0px" viewBox="0 0 100 100" style="enable-background:new 0 0 100 100;" xml:space="preserve"><g><circle cx="74" cy="53" r="2"></circle><path d="M95.7,55c-0.3-0.6-0.9-0.9-1.5-1l-3.6-0.5c-5.6-0.7-9.9-5.1-10.6-10.7L84,26.5c0.2-0.8-0.1-1.6-0.7-2.1   c-0.6-0.5-1.5-0.5-2.2-0.1l-7.4,4.1l-12-18.4c-0.5-0.7-1.3-1.1-2.2-0.8c-0.8,0.2-1.4,0.9-1.5,1.8l-0.7,10.3L38.2,6.4   c-0.7-0.5-1.6-0.6-2.3-0.1c-0.7,0.5-1,1.4-0.8,2.2l4.7,15.6l-19.9-9.9c-0.8-0.4-1.8-0.2-2.4,0.5s-0.7,1.7-0.2,2.4l9.4,14.1L9.4,28   c-0.9-0.2-1.8,0.3-2.1,1.1c-0.4,0.8-0.2,1.8,0.4,2.4l10.6,9.8L6.9,42c-0.8,0.1-1.5,0.6-1.8,1.4c-0.2,0.8,0,1.7,0.7,2.2l8,6.4   l-8.9,6.5c-0.6,0.5-0.9,1.3-0.8,2c0.2,0.8,0.8,1.4,1.6,1.5l7.2,1.4L6.3,74c-0.5,0.7-0.4,1.6,0.2,2.3C6.8,76.7,7.4,77,8,77   c0.2,0,0.5,0,0.7-0.1l6.4-2.3c0.3,3,2.8,5.4,6,5.4v8c0,3.3,2.7,6,6,6h3c2.7,0,5-1.7,5.8-4.3l1.7-5.7h17l1.7,5.7   C57,92.3,59.3,94,62,94h3c3.3,0,6-2.7,6-6v-7.9c0-1.5,1-2.9,2.5-3.3c9.9-2.7,17.9-9.7,21.9-19.1l0.4-0.9C96.1,56.2,96,55.5,95.7,55   z M18.3,69.1l-5.6,2l5-8.1c0.3-0.6,0.4-1.2,0.1-1.8c-0.3-0.6-0.8-1-1.4-1.2l-5.5-1.1l7.3-5.3c0.5-0.4,0.8-1,0.8-1.6   c0-0.6-0.3-1.2-0.8-1.6l-6-4.8L23.1,45c0.8,0,1.5-0.6,1.8-1.3c0.3-0.8,0.1-1.6-0.5-2.1l-9-8.3L30.6,36c0.8,0.1,1.6-0.2,2-0.9   s0.4-1.5,0-2.2l-7.8-11.7l17.3,8.6c0.7,0.4,1.6,0.2,2.2-0.3c0.6-0.5,0.9-1.3,0.6-2.1l-4.2-14l17.1,13.2c0.6,0.5,1.4,0.6,2,0.2   c0.7-0.3,1.1-0.9,1.2-1.7l0.6-8.1l9.8,15c0.6,0.9,1.7,1.2,2.6,0.7l5.1-2.8l-2.5,10.8c-0.1,0.1-0.2,0.2-0.2,0.3   C64.8,41.5,54,46.1,45.9,54.3l-1,1c-4.5,4.5-11.4,8.7-17.5,10.8L18.3,69.1C18.3,69.1,18.3,69.1,18.3,69.1z M72.5,73   c-3.2,0.9-5.5,3.8-5.5,7.2V88c0,1.1-0.9,2-2,2h-3c-0.9,0-1.7-0.6-1.9-1.4l-2.1-7.1c-0.3-0.9-1-1.4-1.9-1.4H36   c-0.9,0-1.7,0.6-1.9,1.4l-2.1,7.2c-0.3,0.9-1,1.4-1.9,1.4h-3c-1.1,0-2-0.9-2-2V78c0-1.1-0.9-2-2-2h-2c-1.1,0-2-0.9-2-2v-0.9   l0.7-0.2l9-3c6.8-2.2,14-6.8,19-11.7l1-1c7.5-7.5,17.2-11.7,27.7-12.1c1.5,6.5,6.9,11.6,13.8,12.5l0.9,0.1   C87.3,65.2,80.6,70.7,72.5,73z"></path></g></svg>