<svg height='300px' width='300px'  fill="#000000" xmlns="http://www.w3.org/2000/svg" data-name="Layer 1" viewBox="0 0 96 96" x="0px" y="0px"><title>Artboard 19</title><path d="M69.6,85.8H26.4c-1.57,0-2.67-2-.86-3.6H31.8V78.6A3.6,3.6,0,0,1,35.4,75H60.6a3.6,3.6,0,0,1,3.6,3.6v3.6h6.26C72.27,83.79,71.17,85.8,69.6,85.8Zm18-75.6H8.4A5.41,5.41,0,0,0,3,15.6V57.94L21.45,39.49a1.8,1.8,0,0,1,2-.36L47.4,50.39,60.93,31.23a1.8,1.8,0,0,1,2.39-.51l13.61,8.11L93,22.76V15.6A5.41,5.41,0,0,0,87.6,10.2ZM76.29,42.64l-13.38-8-13.44,19a1.8,1.8,0,0,1-2.24.59L23.1,42.93,3,63v3a5.41,5.41,0,0,0,5.4,5.4H87.6A5.41,5.41,0,0,0,93,66V27.85L78.48,42.37A1.8,1.8,0,0,1,76.29,42.64Z"></path></svg>