<svg height='300px' width='300px'  fill="#000000" xmlns="http://www.w3.org/2000/svg" xmlns:xlink="http://www.w3.org/1999/xlink" version="1.1" x="0px" y="0px" viewBox="0 0 100 100" enable-background="new 0 0 100 100" xml:space="preserve"><polygon fill="#000000" points="72.367,15.385 70.769,5 57.308,5 58.018,15.385 "></polygon><polygon fill="#000000" points="35.059,15.385 35.769,5 22.308,5 20.71,15.385 "></polygon><polygon fill="#000000" points="56.83,55.577 64.046,64.536 84.615,43.677 64.955,83.1 57.739,74.141 37.17,95 "></polygon><g><path fill="#000000" d="M62.222,51.234l2.346,2.913l12.308-12.481c-1.236-8.624-3.444-19.358-3.444-19.358H58.491l1.815,26.549   L62.222,51.234z"></path><path fill="#000000" d="M37.07,79.688l7.975-15.993C38.12,62.939,32.692,57.123,32.692,50l1.893-27.692H19.645   c0,0-4.26,20.688-4.26,27.692C15.385,63.985,24.496,75.701,37.07,79.688z"></path></g></svg>