<svg height='300px' width='300px'  fill="#000000" xmlns="http://www.w3.org/2000/svg" xmlns:xlink="http://www.w3.org/1999/xlink" version="1.1" x="0px" y="0px" viewBox="0 0 1024 1024" style="enable-background:new 0 0 1024 1024;" xml:space="preserve"><g><path d="M558,865.8l-67.4-221.2l-6.3-20.6c-9.2-30.3-13.9-61.7-13.9-93.3v-75.3h-309v75.2c0,31.7-4.7,63.1-14,93.4   L73.8,865.8c-0.9,2.9-1.6,5.8-2.2,8.7h266.4v20H69.2c0,0.7,0,1.4,0,2.1v49.1c0,7.3,5.9,13.2,13.2,13.2h480.3v-62.3   C562.6,886.1,561.1,875.8,558,865.8z M267.1,606.3c14.8-8.5,31.6-13.1,48.8-13.1c17.2,0,34,4.5,48.8,13.1l4.3,2.5l-26.9,46.5   c-1.3-1-2.7-1.9-4.2-2.7c0,0,0,0,0,0c-1.4-0.8-2.9-1.6-4.5-2.3c-5.5-2.4-11.5-3.7-17.6-3.7c-6.1,0-12.1,1.3-17.6,3.7   c-1.5,0.7-3,1.4-4.5,2.2c0,0,0,0,0,0c-1.5,0.8-2.9,1.8-4.2,2.8l-26.8-46.5L267.1,606.3z M271.4,777.8l-4.3-2.5   c-30.1-17.4-48.8-49.8-48.8-84.5v-5H272c-0.2,1.6-0.3,3.3-0.3,5s0.1,3.3,0.3,5c1.4,12.1,7.8,23.2,17.6,30.5c1.3,1,2.7,1.9,4.2,2.8   c0,0,0,0,0,0c1.4,0.8,2.9,1.6,4.5,2.3L271.4,777.8z M328,711.8c-1.4,0.8-3,1.5-4.6,2c-2.4,0.8-4.9,1.2-7.5,1.2s-5.1-0.4-7.5-1.2   c-1.6-0.5-3.1-1.2-4.6-2c-7.5-4.3-12.1-12.4-12.1-21c0-1.7,0.2-3.4,0.5-5c1.1-5,3.7-9.6,7.5-13c1.2-1.1,2.6-2.1,4.1-3   c3.6-2.1,7.8-3.2,12.1-3.2s8.4,1.1,12.1,3.3c1.5,0.8,2.8,1.8,4.1,2.9c3.8,3.4,6.4,8,7.5,13c0.4,1.6,0.5,3.3,0.5,5   C340.1,699.4,335.4,707.4,328,711.8z M413.5,690.8c0,34.7-18.7,67.1-48.8,84.5l-4.3,2.5l-26.8-46.5c1.5-0.7,3-1.4,4.5-2.3h0   c1.5-0.8,2.8-1.8,4.2-2.8c9.8-7.3,16.2-18.4,17.6-30.5c0.2-1.7,0.3-3.3,0.3-5s-0.1-3.4-0.3-5h53.7V690.8z"></path><path d="M554.8,83.7c-10.7,0-21.2,1.5-31.3,4.5c-11-9.3-24.7-14.3-39.3-14.3c-13.2,0-25.8,4.2-36.2,11.9   c-15.8-12.1-35.1-19-55.2-19.7c-23.3-0.9-46.2,6.8-64.3,21.5c-10.8,8.7-19.5,19.7-25.7,32c-41.7-7.3-83.9,3.5-117,30.4   c-62.5,50.7-72.1,142.7-21.5,205.1l3,3.7h309c0.7,0,1.3,0,1.9,0c14.8,0,27.4-7,34-18.5c2,0.3,3.9,0.5,5.9,0.6   c26.2,1.2,49.3-14.9,57.4-39.2c51.2-9.9,89.1-55.2,89.1-108C664.8,133.1,615.4,83.7,554.8,83.7z M329.1,238.9l-1,10.5l-10.4-1.6   c-3.3-0.5-6.6-0.6-10-0.2c-10,1.1-19,6.1-25.3,14c-6.3,7.9-9.2,17.8-8,27.8l-19.9,2.2c-1.7-15.3,2.6-30.5,12.3-42.5   c9.6-12.1,23.4-19.7,38.8-21.4c2-0.2,3.9-0.3,5.9-0.4c5-13.8,17.5-24,32.6-25.7l2.2,19.9C337.2,222.6,330,229.8,329.1,238.9z    M477.7,229.6l-4.8,7.2l-7.8-3.7c-3.2-1.5-6.7-2.2-10.2-1.9c-11.2,0.8-19.6,10.6-18.8,21.8l-20,1.5c-1.6-22.2,15.1-41.5,37.3-43.2   c4.2-0.3,8.4,0,12.4,1c9.9-11.3,23.7-18.2,38.9-19.3l1.5,20C494.5,213.8,484.1,219.9,477.7,229.6z"></path><path d="M485.9,391.3v33.2c0,6-4.9,11-11,11h-318c-6,0-11-4.9-11-11v-33.2c0-6,4.9-11,11-11h318   C481,380.4,485.9,385.3,485.9,391.3z"></path><path d="M724.7,227.5c9.6-13.4,23.8-22.2,39.8-24.9c1.4-4.4,3.4-8.5,6.1-12.3c6.6-9.3,16.5-15.4,27.5-17.3   c11.1-13,27.6-20.7,44.8-20.7c32.5,0,59,26.5,59,59c0,16.2-6.8,31.8-18.5,43c-6,8.3-14.1,14.9-23.4,19.3c-0.1,4.6-1,9.2-2.5,13.5   c-6.1,17-22.5,28.3-40.4,28.3c-0.7,0-1.5,0-2.2-0.1l-73.4-0.1l-2.6-1.9C711.3,293.7,704.9,255.1,724.7,227.5z"></path><polygon points="843.7,551.7 712.2,551.7 718.2,451.7 837.7,451.7  "></polygon><polygon points="836.5,431.7 719.4,431.7 720,420.8 727.8,335.3 828.9,335.3 828.9,344.9 835.9,421.1  "></polygon><path d="M929.6,637.5h-80.7l-3.9-65.9H711l-3.9,65.9H512.5l71.4,234.1c2.5,8.1,3.7,16.5,3.7,24.9v62.3h355.2   c7.3,0,13.1-5.9,13.1-13.2V663.9C955.9,649.4,944.1,637.5,929.6,637.5z M669.7,802.8c0,3-2.5,5.5-5.5,5.5h-42c-3,0-5.5-2.5-5.5-5.5   v-81c0-3,2.5-5.5,5.5-5.5h42c3,0,5.5,2.5,5.5,5.5V802.8z M772.5,802.8c0,3-2.5,5.5-5.5,5.5h-42c-3,0-5.5-2.5-5.5-5.5v-81   c0-3,2.5-5.5,5.5-5.5h42c3,0,5.5,2.5,5.5,5.5V802.8z M875.2,802.8c0,3-2.5,5.5-5.5,5.5h-42c-3,0-5.5-2.5-5.5-5.5v-81   c0-3,2.5-5.5,5.5-5.5h42c3,0,5.5,2.5,5.5,5.5V802.8z"></path></g></svg>