<svg height='300px' width='300px'  fill="#000000" xmlns="http://www.w3.org/2000/svg" viewBox="0 0 36 36" x="0px" y="0px"><title>Монтажная область 26</title><path d="M31.62,31l-.11-.18-.21-.39-1.5-2.59-.29-.54-5.74-10-.85-1.5-.86,1.5-1.14,2v0l-.84,1.47h0L16.46,27l0,.06-.11.18-.48.87-.46.79h0l-.94,1.65-.22.38a1.94,1.94,0,0,0-.27.92,2.33,2.33,0,0,0,0,.37l.09.28a4.75,4.75,0,0,0,2.51,2.21l.31.15a3.24,3.24,0,0,0,.33.13,4.6,4.6,0,0,0,.52.19,14.82,14.82,0,0,0,2.36.58h0c.55.1,1.15.15,1.74.2l1,0c.47,0,.92,0,1.35,0l.15,0c.22,0,.43,0,.65-.06a1.57,1.57,0,0,0,.3,0l.46-.06A13.13,13.13,0,0,0,28.75,35l.46-.2a5.87,5.87,0,0,0,2.24-1.67,1.69,1.69,0,0,0,.17-.29l.08-.13a2.07,2.07,0,0,0,.16-.52,2.45,2.45,0,0,0,0-.27A2,2,0,0,0,31.62,31Z"></path><path d="M13.08,8.24c5.29,0,9-2.16,9-4.11S18.37,0,13.08,0s-9,2.17-9,4.13S7.8,8.24,13.08,8.24Z"></path><path d="M18.51,20l.87-1.5,2.68-4.7V7.32c-1.89,1.6-5.17,2.63-9,2.63s-7.07-1-9-2.63V23.21a1.09,1.09,0,0,0,0,.18s0,0,0,.06a1,1,0,0,0,.08.32,2.58,2.58,0,0,0,.13.31,5.3,5.3,0,0,0,2.39,2c.12.05.23.11.35.15a3.65,3.65,0,0,0,.41.18,4.91,4.91,0,0,0,.5.17H8a13.5,13.5,0,0,0,2.25.54h0c.56.09,1.14.15,1.75.19h0c.32,0,.65,0,1,0s.85,0,1.25,0Z"></path></svg>