<svg height='300px' width='300px'  fill="#000000" xmlns="http://www.w3.org/2000/svg" xmlns:xlink="http://www.w3.org/1999/xlink" version="1.1" x="0px" y="0px" viewBox="0 0 72 72" enable-background="new 0 0 72 72" xml:space="preserve"><g><g><path fill="#000000" d="M22.4,46.1c0-0.9-1-1.8-2.7-2.5c-0.3-0.1-0.5-0.3-0.6-0.5c-3.7-5.4-4.4-12.8-4.5-16.8    c0-0.5,0.2-1.1,0.6-1.4c1.3-1.2,2.1-2.9,1.9-4.9c-0.3-2.5-2.4-4.6-4.9-4.9c-3.4-0.4-6.2,2.3-6.2,5.6c0,1.7,0.7,3.2,1.9,4.2    c0.4,0.4,0.6,0.9,0.6,1.4c-0.1,4-0.8,11.3-4.5,16.7c-0.2,0.2-0.4,0.4-0.6,0.5c-1.7,0.7-2.7,1.5-2.7,2.5c0,0.7,0.5,1.3,1.4,1.9    c0.4,0.2,0.7,0.7,0.7,1.1v1.2c0,0.7,0.6,1.3,1.3,1.3h15c0.7,0,1.3-0.6,1.3-1.3v-1.2c0-0.5,0.3-0.9,0.7-1.1    C21.9,47.4,22.4,46.8,22.4,46.1z"></path><path fill="#000000" d="M71.5,46.1c0-0.9-1-1.8-2.7-2.5c-0.3-0.1-0.5-0.3-0.6-0.5c-3.7-5.4-4.4-12.8-4.5-16.8    c0-0.5,0.2-1.1,0.6-1.4c1.3-1.2,2.1-2.9,1.9-4.9c-0.3-2.5-2.4-4.6-4.9-4.9c-3.4-0.4-6.2,2.3-6.2,5.6c0,1.7,0.7,3.2,1.9,4.2    c0.4,0.4,0.6,0.9,0.6,1.4c-0.1,4-0.8,11.3-4.5,16.7c-0.2,0.2-0.4,0.4-0.6,0.5c-1.7,0.7-2.7,1.5-2.7,2.5c0,0.7,0.5,1.3,1.4,1.9    c0.4,0.2,0.7,0.7,0.7,1.1v1.2c0,0.7,0.6,1.3,1.3,1.3h15c0.7,0,1.3-0.6,1.3-1.3v-1.2c0-0.5,0.3-0.9,0.7-1.1    C71,47.4,71.5,46.8,71.5,46.1z"></path></g><path fill="#000000" d="M48.7,55.9c-0.4-0.2-0.7-0.4-1-0.8c-4.9-7.1-6.4-16.5-6.8-22.8c0-0.3,0.2-0.5,0.5-0.5h2.7   c0.5,0,0.9-0.4,0.9-0.9v-2.1c0-0.5-0.4-0.9-0.9-0.9h0l3.2-12.3c0.1-0.3-0.1-0.6-0.4-0.6h-8.1c-0.3,0-0.5-0.2-0.5-0.5v-2.1   c0-0.3,0.2-0.5,0.5-0.5h2.6c0.3,0,0.5-0.2,0.5-0.5V7.8c0-0.3-0.2-0.5-0.5-0.5h-2.6c-0.3,0-0.5-0.2-0.5-0.5V4.2   c0-0.3-0.2-0.5-0.5-0.5h-3.7c-0.3,0-0.5,0.2-0.5,0.5v2.6c0,0.3-0.2,0.5-0.5,0.5h-2.6c-0.3,0-0.5,0.2-0.5,0.5v3.7   c0,0.3,0.2,0.5,0.5,0.5h2.6c0.3,0,0.5,0.2,0.5,0.5v2.1c0,0.3-0.2,0.5-0.5,0.5h-8.1c-0.3,0-0.5,0.3-0.4,0.6l3.2,12.3h0   c-0.5,0-0.9,0.4-0.9,0.9v2.1c0,0.5,0.4,0.9,0.9,0.9h2.7c0.3,0,0.5,0.2,0.5,0.5c-0.4,6.4-1.9,15.7-6.8,22.8c-0.2,0.3-0.6,0.6-1,0.8   c-2.6,1-4.2,2.3-4.2,3.8c0,1,0.8,2,2.2,2.8c0.6,0.4,1,1,1,1.8v1.9c0,1.1,0.9,2,2,2h23.1c1.1,0,2-0.9,2-2v-1.9c0-0.7,0.4-1.4,1-1.8   c1.4-0.8,2.2-1.8,2.2-2.8C52.8,58.2,51.3,56.9,48.7,55.9z"></path></g></svg>