<svg height='300px' width='300px'  fill="#000000" xmlns="http://www.w3.org/2000/svg" xmlns:xlink="http://www.w3.org/1999/xlink" version="1.1" x="0px" y="0px" viewBox="0 0 95 95" enable-background="new 0 0 95 95" xml:space="preserve"><g><g><path d="M79.27,34.308c0.635-1.994,0.982-4.113,0.982-6.316c0-11.492-9.316-20.811-20.809-20.811    c-8.072,0-15.053,4.604-18.506,11.32c-1.848-0.883-3.906-1.387-6.088-1.387c-7.838,0-14.189,6.352-14.189,14.186    c0,0.178,0.02,0.348,0.025,0.521c-6.008,1.648-10.432,7.135-10.432,13.668c0,7.838,6.354,14.189,14.189,14.189h46.113    c7.836,0,14.189-6.352,14.189-14.189C84.746,40.942,82.598,36.905,79.27,34.308z"></path></g><g><g><rect x="24.504" y="65.685" width="4.211" height="17.215"></rect></g><g><rect x="35.029" y="70.603" width="4.211" height="17.217"></rect></g><g><rect x="45.555" y="65.685" width="4.211" height="17.215"></rect></g><g><rect x="56.082" y="70.603" width="4.209" height="17.217"></rect></g><g><rect x="66.607" y="65.685" width="4.211" height="17.215"></rect></g></g></g></svg>