<?xml version="1.0" standalone="no"?>
<!DOCTYPE svg PUBLIC "-//W3C//DTD SVG 20010904//EN"
 "http://www.w3.org/TR/2001/REC-SVG-20010904/DTD/svg10.dtd">
<svg version="1.0" xmlns="http://www.w3.org/2000/svg"
 width="800.000000pt" height="800.000000pt" viewBox="0 0 800.000000 800.000000"
 preserveAspectRatio="xMidYMid meet">

<g transform="translate(0.000000,800.000000) scale(0.100000,-0.100000)"
fill="#000000" stroke="none">
<path d="M5000 6846 c-31 -206 -36 -229 -55 -236 -31 -12 -359 -86 -439 -100
-210 -35 -511 -268 -608 -470 -83 -172 -29 -391 141 -572 86 -92 155 -147 270
-216 46 -28 79 -52 74 -55 -4 -2 -33 -8 -63 -11 -48 -6 -67 -16 -140 -72 -323
-246 -568 -540 -673 -806 -54 -136 -62 -181 -61 -363 0 -149 4 -185 28 -289
76 -328 229 -654 497 -1063 l21 -33 -124 0 -124 0 -154 202 c-402 527 -521
777 -537 1128 -10 235 71 443 273 694 79 97 237 260 279 285 16 10 17 13 5 18
-27 10 -165 156 -230 243 -116 156 -165 300 -141 416 25 129 90 233 240 387
57 59 99 107 93 107 -6 0 -80 -16 -164 -35 -84 -19 -215 -48 -291 -63 l-138
-29 2 201 c1 110 8 251 15 311 8 61 13 121 13 135 -1 30 -37 -189 -75 -463
-25 -179 -30 -198 -49 -203 -11 -3 -166 -33 -345 -68 -365 -71 -362 -70 -527
-200 -101 -80 -183 -177 -231 -276 -36 -73 -37 -76 -36 -190 1 -114 1 -115 40
-184 55 -97 142 -187 246 -256 49 -32 88 -62 86 -66 -2 -5 -35 -30 -74 -56
-187 -125 -328 -321 -386 -536 -27 -101 -30 -323 -6 -428 48 -210 175 -423
367 -615 53 -53 116 -112 141 -132 24 -19 42 -38 39 -41 -5 -5 -199 43 -311
77 -33 10 -125 73 -300 203 -139 103 -345 255 -456 338 -112 83 -387 288 -610
455 -547 407 -605 446 -316 210 227 -187 342 -283 530 -440 306 -258 459 -384
483 -398 26 -14 82 -60 356 -287 l170 -141 107 -169 c193 -307 320 -476 593
-789 53 -60 135 -165 183 -232 80 -113 217 -325 225 -348 6 -16 2995 -12 3072
4 90 20 160 58 239 132 124 117 231 321 294 562 27 106 28 108 75 141 62 44
105 54 273 65 114 7 151 13 188 30 91 44 163 134 275 341 35 63 79 132 99 153
61 63 162 102 393 151 88 19 127 51 138 113 12 70 5 83 -42 81 -23 0 -49 -4
-58 -9 -33 -17 -523 -89 -604 -89 -29 0 -35 8 -95 113 -108 189 -168 316 -210
447 -63 198 -75 276 -74 500 0 214 13 314 65 509 94 354 362 847 766 1406 116
160 98 141 -292 -300 -569 -644 -640 -721 -643 -694 -2 13 9 159 23 324 23
276 29 386 20 360 -2 -5 -25 -176 -50 -380 -25 -203 -49 -378 -53 -387 -18
-44 -1094 -1195 -1119 -1197 -23 -2 -53 197 -53 352 -1 441 321 1021 889 1599
74 76 133 140 130 142 -2 2 -68 -20 -146 -49 -78 -29 -174 -64 -213 -76 -70
-23 -72 -23 -123 -5 -164 57 -343 166 -404 245 -49 65 -63 104 -63 181 0 209
152 424 506 717 59 48 119 98 133 111 l26 22 -30 -6 c-16 -4 -176 -46 -355
-94 -476 -128 -819 -214 -826 -207 -3 3 4 96 16 206 12 111 20 209 18 218 -2
10 -19 -85 -38 -211z m-2045 -913 c-3 -13 -10 -21 -15 -18 -10 6 -8 23 7 83 7
27 7 27 11 -7 2 -19 1 -45 -3 -58z m2685 -232 c136 -19 261 -39 353 -57 15 -3
27 -9 27 -13 0 -26 -1064 -341 -1152 -341 -23 0 -23 1 2 201 31 248 25 227 68
232 98 12 552 -2 702 -22z m-818 -11 c-2 -7 -17 -105 -35 -218 -28 -181 -33
-205 -52 -212 -40 -15 -309 -60 -316 -53 -21 24 -51 135 -52 193 -1 140 84
219 296 275 141 36 165 39 159 15z m-2071 -550 l36 -10 -32 -215 c-17 -118
-34 -217 -36 -220 -14 -13 -226 -37 -379 -42 -217 -7 -205 -15 -205 141 0 95
3 117 22 152 66 123 241 202 453 203 58 1 121 -4 141 -9z m142 -31 l37 -10 -1
-137 c0 -75 -4 -159 -7 -187 l-7 -50 -58 -9 c-32 -4 -60 -6 -64 -3 -5 6 33
369 42 395 5 15 10 15 58 1z m237 -67 c272 -85 440 -151 418 -163 -17 -9 -559
-139 -581 -139 -15 0 -17 16 -17 175 0 135 3 175 13 175 7 0 82 -22 167 -48z
m1695 -1587 c86 -15 316 -85 345 -105 12 -9 -30 -55 -224 -246 -248 -244 -363
-350 -371 -342 -5 4 63 671 71 696 5 16 72 15 179 -3z m-355 -17 c0 -12 -16
-128 -35 -257 -40 -266 -78 -404 -148 -536 l-43 -80 -121 -3 -120 -3 -23 103
c-30 139 -38 329 -16 421 20 85 46 137 99 194 77 83 178 136 322 168 83 18 85
18 85 -7z m-1950 -67 c0 -22 -55 -403 -72 -500 -6 -36 -14 -70 -18 -74 -4 -5
-44 -1 -89 9 l-81 17 -21 56 c-37 100 -59 202 -59 280 0 162 78 229 268 230
64 1 72 -1 72 -18z m260 -59 l95 -48 -4 -279 c-2 -154 -6 -283 -10 -287 -6 -7
-295 53 -306 64 -3 3 10 138 29 300 20 162 36 298 36 302 0 16 68 -7 160 -52z
m3670 26 c0 -42 -48 -410 -55 -416 -4 -4 -86 -13 -290 -31 -49 -4 -97 -4 -106
0 -50 25 -275 298 -266 322 6 15 196 78 337 112 121 28 216 42 313 44 l67 1 0
-32z m251 -61 c118 -60 271 -154 373 -230 l70 -52 -40 -7 c-70 -13 -556 -59
-562 -54 -5 6 13 283 24 359 3 20 11 37 18 37 7 0 60 -24 117 -53z m-3663
-125 c196 -141 406 -317 595 -500 48 -47 86 -87 84 -89 -16 -15 -728 89 -804
118 -22 8 -23 14 -23 97 0 220 13 452 26 452 7 0 61 -35 122 -78z m2648 -65
c164 -101 304 -196 304 -207 0 -5 -11 -21 -24 -35 -14 -15 -39 -61 -57 -103
-51 -125 -66 -148 -103 -166 -30 -14 -100 -16 -646 -16 l-613 0 7 46 c3 25 8
49 11 53 8 15 408 229 581 313 159 76 402 186 415 188 3 0 59 -33 125 -73z
m-3371 -442 c198 -46 465 -103 747 -159 152 -31 282 -58 290 -61 50 -18 797
-143 1103 -185 362 -50 387 -52 786 -57 511 -7 499 -10 794 207 186 136 257
184 340 231 l59 33 220 8 c121 4 222 5 225 3 20 -20 -81 -48 -277 -75 -123
-17 -153 -25 -210 -55 -68 -36 -205 -132 -377 -263 -103 -79 -202 -130 -305
-157 -57 -15 -111 -16 -455 -12 -267 3 -437 10 -540 21 -212 24 -673 91 -861
125 -737 135 -904 174 -1363 315 -275 84 -335 105 -301 106 8 0 65 -12 125
-25z m218 -430 c46 -12 529 -118 877 -192 136 -28 160 -37 160 -57 0 -61 -203
-46 -495 36 -209 58 -605 202 -605 219 0 12 3 11 63 -6z"/>
<path d="M3012 6610 c0 -14 2 -19 5 -12 2 6 2 18 0 25 -3 6 -5 1 -5 -13z"/>
</g>
</svg>
