<svg height='300px' width='300px'  fill="#000000" xmlns="http://www.w3.org/2000/svg" viewBox="0 0 100 100" x="0px" y="0px"><title>accessory, glasses, optics, eyesight</title><path d="M91.9375,44.28721,78.75,29.795A14.59939,14.59939,0,0,0,62.36523,26.1583a4.00015,4.00015,0,1,0,3.082,7.38281A6.58554,6.58554,0,0,1,72.832,35.17783l7.81275,8.5857c-1.34693-.06556-2.69385-.10718-4.04041-.10718a77.28734,77.28734,0,0,0-15.28149,1.50244c-3.73023.75012-7.54761,2.44873-11.17981,2.44873-.04786,0-.09534-.00037-.14307-.001-.04761.00061-.09546.001-.14307.001-3.63244,0-7.44946-1.69849-11.17981-2.44873a77.30536,77.30536,0,0,0-15.28149-1.50244c-1.3468,0-2.6936.04162-4.04041.10718l7.81275-8.5857a6.583,6.583,0,0,1,7.38476-1.63672,4.00015,4.00015,0,1,0,3.082-7.38281A14.59582,14.59582,0,0,0,21.25,29.795L8.0625,44.28721a3.99962,3.99962,0,0,0,.26758,5.65039c.088.08008.18664.13916.27954.21.007.00464.00806.01794.01535.022,1.67752.91223,2.55374,4.52124,2.9285,7.48413.89563,7.08179,3.634,12.42212,11.36084,13.99134a34.58059,34.58059,0,0,0,6.81457.78772c4.7627,0,9.09216-1.47962,12.4646-6.0365,1.65466-2.23572,1.90247-7.06653,3.32971-9.53211a10.06887,10.06887,0,0,1,1.4867-1.90906,4.16079,4.16079,0,0,1,5.98022,0,10.06887,10.06887,0,0,1,1.4867,1.90906c1.42724,2.46558,1.675,7.29639,3.32971,9.53211,3.37219,4.55639,7.70239,6.0365,12.4646,6.0365a34.57251,34.57251,0,0,0,6.81457-.78772c7.72681-1.56922,10.46521-6.90955,11.36084-13.99134.37476-2.96289,1.251-6.5719,2.92844-7.48413.00748-.004.0087-.01745.01566-.02222.09277-.07067.1914-.12963.27929-.20971A3.99962,3.99962,0,0,0,91.9375,44.28721ZM36.27783,59.39194c-.1958.79041-.48279,1.94947-.68493,2.469-1.46253,1.86987-3.08191,2.5719-5.864,2.5719a26.74729,26.74729,0,0,1-5.22241-.62793c-2.549-.51758-4.275-1.29529-5.01624-7.155a32.97107,32.97107,0,0,0-.951-4.83533c1.637-.10522,3.26148-.1582,4.85645-.1582A69.67843,69.67843,0,0,1,37.1,53.00181c.3977.08.81787.18042,1.25561.29431A26.1019,26.1019,0,0,0,36.27783,59.39194Zm44.23194-2.74206c-.74109,5.85974-2.46729,6.63745-5.01612,7.155a26.74939,26.74939,0,0,1-5.22253.62793c-2.78211,0-4.40161-.702-5.864-2.5719-.20214-.51966-.48913-1.67859-.68493-2.469a26.09941,26.09941,0,0,0-2.07776-6.09582c.43774-.11389.85779-.21423,1.25549-.29431a69.66725,69.66725,0,0,1,13.70423-1.34546c1.59436,0,3.21789.053,4.85656.15845A32.99883,32.99883,0,0,0,80.50977,56.64988Z"></path></svg>