<svg height='300px' width='300px'  fill="#000000" xmlns="http://www.w3.org/2000/svg" xmlns:xlink="http://www.w3.org/1999/xlink" xml:space="preserve" version="1.1" style="shape-rendering:geometricPrecision;text-rendering:geometricPrecision;image-rendering:optimizeQuality;" viewBox="0 0 847 847" x="0px" y="0px" fill-rule="evenodd" clip-rule="evenodd"><defs><style type="text/css">
   
    .str0 {stroke:black;stroke-width:20;stroke-linecap:round;stroke-linejoin:round}
    .fil0 {fill:none}
    .fil1 {fill:#000000}
   
  </style></defs><g><polygon class="fil0 str0" points="71,772 781,772 781,803 71,803 "></polygon><polyline class="fil0 str0" points="123,772 123,363 221,292 294,332 294,772 "></polyline><polyline class="fil0 str0" points="123,567 189,519 189,772 "></polyline><line class="fil0 str0" x1="221" y1="292" x2="221" y2="772"></line><polyline class="fil0 str0" points="294,332 294,198 480,42 568,127 568,772 "></polyline><polyline class="fil0 str0" points="568,396 649,342 736,387 736,772 "></polyline><line class="fil0 str0" x1="649" y1="342" x2="649" y2="772"></line><polyline class="fil0 str0" points="568,500 615,475 615,772 "></polyline><polyline class="fil0 str0" points="294,397 400,325 400,772 "></polyline><line class="fil0 str0" x1="480" y1="42" x2="480" y2="772"></line><polygon class="fil1" points="294,397 294,332 221,292 221,772 294,772 "></polygon><polygon class="fil1" points="480,42 480,772 568,772 568,500 568,396 568,127 "></polygon><polygon class="fil1" points="649,342 649,772 736,772 736,387 "></polygon><polygon class="fil1" points="189,772 189,519 123,567 123,772 "></polygon><polygon class="fil1" points="294,397 294,772 400,772 400,325 "></polygon><polygon class="fil1" points="568,500 568,772 615,772 615,475 "></polygon></g></svg>