<svg height='300px' width='300px'  fill="#000000" xmlns="http://www.w3.org/2000/svg" data-name="Layer 1" viewBox="0 0 24 24" x="0px" y="0px"><title>code, coding, program, programming, hack</title><path d="M23.56055,10.93945l-4-4a1.49984,1.49984,0,0,0-2.1211,2.1211l2.87081,2.8708a.09709.09709,0,0,1,0,.1373l-2.79413,2.79412a1.57476,1.57476,0,0,0-.16186,2.10535,1.49973,1.49973,0,0,0,2.20628.09243l4-4A1.49985,1.49985,0,0,0,23.56055,10.93945Z"></path><path d="M6.56055,6.93945a1.49947,1.49947,0,0,0-2.1211,0l-4,4a1.49985,1.49985,0,0,0,0,2.1211l4,4a1.49973,1.49973,0,0,0,2.20628-.09243,1.57476,1.57476,0,0,0-.16186-2.10535L3.68974,12.06865a.09709.09709,0,0,1,0-.1373l2.87081-2.8708A1.49947,1.49947,0,0,0,6.56055,6.93945Z"></path><rect x="2.25393" y="10.50014" width="19.49214" height="2.99972" rx="1" transform="translate(-2.55214 20.73128) rotate(-75.96376)"></rect></svg>