<svg height='300px' width='300px'  fill="#000000" xmlns="http://www.w3.org/2000/svg" xmlns:xlink="http://www.w3.org/1999/xlink" version="1.1" x="0px" y="0px" viewBox="0 0 90 90" enable-background="new 0 0 90 90" xml:space="preserve"><path d="M42.34,12.269c6.467,0,11.702,2.442,15.27,5.646c3.574,3.209,5.662,6.948,5.995,10.75l0.438,4.917  c3.588,3.589,11.505,3.854,16.328-0.969v-4.261c-7.984,4.604-12.749-2.974-12.749-10.275c0-8.011-7.371-12.323-13.751-12.323  C46.881,5.753,42.34,12.269,42.34,12.269z"></path><path d="M26.007,61.065l-8.819,3.542c-2.468,1.333-3.391,2.5-4.285,4.598l-3.089,7.256c-0.646,2.771,0.713,3.818,1.953,4.198  c5.297,1.188,20.303,3.563,30.574,3.563c10.27,0,25.275-2.375,30.567-3.563c1.244-0.38,2.604-1.427,1.958-4.198l-3.089-7.256  c-0.896-2.098-1.817-3.265-4.286-4.598l-8.817-3.542l-10.161,3.672l-5.215,9.301c-0.354,0.637-1.583,0.637-1.938,0l-5.213-9.306  L26.007,61.065z"></path><path fill-rule="evenodd" clip-rule="evenodd" d="M42.34,16.273c-10.97,0-16.876,8.073-17.282,12.745  c-0.677,7.656-2.026,22.962-2.026,22.962c-0.177,2.018,0.688,4,3.85,5.143l12.645,4.576c0.09,0.033,0.178,0.054,0.271,0.085V46.279  c-2.504-0.75-5.785-1.741-8.676-2.609c-0.803-0.241-1.068-0.792-1.068-1.459V39.05c0-0.793,0.525-1.333,1.161-1.146l11.126,3.271  l10.827-3.214c0.796-0.239,1.454,0.183,1.454,1.089v3.161c0,0.667-0.267,1.218-1.063,1.459c-2.896,0.868-6.177,1.859-8.677,2.609  v15.505c0.088-0.031,0.183-0.052,0.271-0.085l12.646-4.576c3.163-1.143,4.021-3.125,3.844-5.143l-2.02-22.962  C59.209,24.347,53.308,16.273,42.34,16.273z"></path></svg>