<svg height='300px' width='300px'  fill="#000000" xmlns:dc="http://purl.org/dc/elements/1.1/" xmlns:cc="http://creativecommons.org/ns#" xmlns:rdf="http://www.w3.org/1999/02/22-rdf-syntax-ns#" xmlns:svg="http://www.w3.org/2000/svg" xmlns="http://www.w3.org/2000/svg" xmlns:sodipodi="http://sodipodi.sourceforge.net/DTD/sodipodi-0.dtd" xmlns:inkscape="http://www.inkscape.org/namespaces/inkscape" version="1.1" x="0px" y="0px" viewBox="0 0 100 100"><g transform="translate(0,-952.36218)"><path style="font-size:medium;font-style:normal;font-variant:normal;font-weight:normal;font-stretch:normal;text-indent:0;text-align:start;text-decoration:none;line-height:normal;letter-spacing:normal;word-spacing:normal;text-transform:none;direction:ltr;block-progression:tb;writing-mode:lr-tb;text-anchor:start;baseline-shift:baseline;opacity:1;color:#000000;fill:#000000;fill-opacity:1;stroke:none;stroke-width:6;marker:none;visibility:visible;display:inline;overflow:visible;enable-background:accumulate;font-family:Sans;-inkscape-font-specification:Sans" d="M 11.6875 7 A 3.0003 3.0003 0 0 0 9 10 L 9 44 A 3.0003 3.0003 0 0 0 12 47 L 44 47 A 3.0003 3.0003 0 0 0 47 44 L 47 10 A 3.0003 3.0003 0 0 0 44 7 L 12 7 A 3.0003 3.0003 0 0 0 11.6875 7 z M 55.6875 7 A 3.0003 3.0003 0 0 0 53 10 L 53 90 A 3.0003 3.0003 0 0 0 56 93 L 88 93 A 3.0003 3.0003 0 0 0 91 90 L 91 10 A 3.0003 3.0003 0 0 0 88 7 L 56 7 A 3.0003 3.0003 0 0 0 55.6875 7 z M 15 13 L 41 13 L 41 41 L 15 41 L 15 13 z M 59 13 L 85 13 L 85 87 L 59 87 L 59 13 z M 27.96875 16.9375 A 3.0003 3.0003 0 0 0 25 20 L 25 24 L 21 24 A 3.0003 3.0003 0 0 0 20.6875 24 A 3.0040663 3.0040663 0 1 0 21 30 L 25 30 L 25 34 A 3.0003 3.0003 0 1 0 31 34 L 31 30 L 35 30 A 3.0003 3.0003 0 1 0 35 24 L 31 24 L 31 20 A 3.0003 3.0003 0 0 0 27.96875 16.9375 z M 64.6875 43 A 3.0040663 3.0040663 0 1 0 65 49 L 79 49 A 3.0003 3.0003 0 1 0 79 43 L 65 43 A 3.0003 3.0003 0 0 0 64.6875 43 z M 64.6875 51 A 3.0040663 3.0040663 0 1 0 65 57 L 79 57 A 3.0003 3.0003 0 1 0 79 51 L 65 51 A 3.0003 3.0003 0 0 0 64.6875 51 z M 11.6875 53 A 3.0003 3.0003 0 0 0 9 56 L 9 90 A 3.0003 3.0003 0 0 0 12 93 L 44 93 A 3.0003 3.0003 0 0 0 47 90 L 47 56 A 3.0003 3.0003 0 0 0 44 53 L 12 53 A 3.0003 3.0003 0 0 0 11.6875 53 z M 15 59 L 41 59 L 41 87 L 15 87 L 15 59 z M 20.6875 70 A 3.0040663 3.0040663 0 1 0 21 76 L 35 76 A 3.0003 3.0003 0 1 0 35 70 L 21 70 A 3.0003 3.0003 0 0 0 20.6875 70 z " transform="translate(0,952.36218)"></path></g></svg>