<svg height='300px' width='300px'  fill="#000000" xmlns="http://www.w3.org/2000/svg" xmlns:xlink="http://www.w3.org/1999/xlink" version="1.1" x="0px" y="0px" viewBox="0 0 100 100" style="enable-background:new 0 0 100 100;" xml:space="preserve"><path d="M86.9,16.6c-4.4,0-8,3.6-8,8c0,2,0.7,3.8,1.9,5.2L68.4,42.1c-1.5-1.5-3.6-2.5-5.9-2.5c-4.3,0-7.8,3.3-8.1,7.4  l-30.3-5.7c0.3-0.9,0.4-1.8,0.4-2.7c0-5.4-4.3-9.7-9.7-9.7c-5.4,0-9.7,4.3-9.7,9.7c0,5.4,4.3,9.7,9.7,9.7c0.4,0,0.8,0,1.2-0.1  l3.2,16.8c-4.3,0.8-7.5,4.6-7.5,9.1c0,5.1,4.1,9.2,9.2,9.2s9.2-4.1,9.2-9.2c0-5.1-4.1-9.2-9.2-9.2c-0.3,0-0.6,0-1,0.1l-3.2-16.8  c3.2-0.7,5.9-3,7.1-6l30.5,5.7c0,4.5,3.7,8.1,8.2,8.1c4.5,0,8.2-3.7,8.2-8.2c0-1.9-0.7-3.7-1.8-5.1l12.5-12.3  c1.4,1.4,3.4,2.2,5.5,2.2c4.4,0,8-3.6,8-8S91.3,16.6,86.9,16.6z"></path></svg>