<svg height='300px' width='300px'  fill="#000000" xmlns="http://www.w3.org/2000/svg" xmlns:xlink="http://www.w3.org/1999/xlink" version="1.1" x="0px" y="0px" viewBox="0 0 128 128" style="enable-background:new 0 0 128 128;" xml:space="preserve"><path d="M80.7807999,51.5601006L51.2192001,37.4468002C49.2338982,36.4990005,46.6171989,36.0248985,44,36.0248985  s-5.2338982,0.474102-7.2192001,1.4219017L7.2192402,51.5601006C3.2485399,53.4561005,0,58.6068993,0,63.0068016v33.9956017  c0,4.3998947,3.12988,9.7783966,6.9560499,11.9516983l30.0878487,17.0942001  c1.9131012,1.0865021,4.4346008,1.6298981,6.9561005,1.6298981s5.0429993-0.543396,6.9561005-1.6298981l30.0877991-17.0942001  C84.8701019,106.7807999,88,101.402298,88,97.0024033V63.0068016C88,58.6068993,84.751503,53.4561005,80.7807999,51.5601006z   M44,52.6665001c3.8656998,0,7,1.7910004,7,4.0009995c0,2.2080002-3.1343002,3.9990005-7,3.9990005s-7-1.7910004-7-3.9990005  C37,54.4575005,40.1343002,52.6665001,44,52.6665001z M15.7881002,103.685997C15.3613005,103.8983994,14.9057999,104,14.4379997,104  c-2.0443993,0-4.3344994-1.9301987-5.58741-4.9346008C7.31006,95.3730011,7.91992,91.455101,10.2109003,90.314003  C10.6381998,90.1010971,11.0937996,90,11.5620003,90c2.0448999,0,4.335,1.9297028,5.5874004,4.9340973  C18.6898994,98.626503,18.0800991,102.5444031,15.7881002,103.685997z M15.7881002,81.685997  C15.3613005,81.8983994,14.9057999,82,14.4379997,82c-2.0443993,0-4.3344994-1.9301987-5.58741-4.9346008  C7.31006,73.3730011,7.91992,69.455101,10.2109003,68.314003C10.6381998,68.1010971,11.0937996,68,11.5620003,68  c2.0448999,0,4.335,1.9297028,5.5874004,4.9340973C18.6898994,76.626503,18.0800991,80.5444031,15.7881002,81.685997z   M35.7881012,114.685997C35.3613014,114.8983994,34.9057999,115,34.4379997,115  c-2.0443993,0-4.3344994-1.9301987-5.5874004-4.9346008c-1.5404987-3.6923981-0.9306984-7.6102982,1.3603001-8.7513962  C30.6382008,101.1010971,31.0937996,101,31.5620003,101c2.044899,0,4.3349991,1.9297028,5.5873985,4.9340973  C38.6898994,109.626503,38.080101,113.5444031,35.7881012,114.685997z M35.7881012,92.685997  C35.3613014,92.8983994,34.9057999,93,34.4379997,93c-2.0443993,0-4.3344994-1.9301987-5.5874004-4.9346008  c-1.5404987-3.6923981-0.9306984-7.6102982,1.3603001-8.7513962C30.6382008,79.1010971,31.0937996,79,31.5620003,79  c2.044899,0,4.3349991,1.9297028,5.5873985,4.9340973C38.6898994,87.626503,38.080101,91.5444031,35.7881012,92.685997z   M59.1493988,110.0653992C57.8964996,113.0698013,55.6063995,115,53.5620003,115  c-0.4678001,0-0.9233017-0.1016006-1.3501015-0.314003c-2.2919998-1.1415939-2.9017982-5.059494-1.3612976-8.7518997  C52.1030006,102.9297028,54.3931007,101,56.4379997,101c0.4682999,0,0.9238014,0.1010971,1.3511009,0.314003  C60.080101,102.455101,60.6898994,106.3730011,59.1493988,110.0653992z M59.1493988,88.0653992  C57.8964996,91.0698013,55.6063995,93,53.5620003,93c-0.4678001,0-0.9233017-0.1016006-1.3501015-0.314003  c-2.2919998-1.1415939-2.9017982-5.059494-1.3612976-8.7518997C52.1030006,80.9297028,54.3931007,79,56.4379997,79  c0.4682999,0,0.9238014,0.1010971,1.3511009,0.314003C60.080101,80.455101,60.6898994,84.3730011,59.1493988,88.0653992z   M79.1493988,99.0653992C77.8964996,102.0698013,75.6063995,104,73.5619965,104  c-0.4677963,0-0.9232941-0.1016006-1.3500977-0.314003c-2.2919998-1.1415939-2.9018021-5.059494-1.3612976-8.7518997  C72.1029968,91.9297028,74.3930969,90,76.4380035,90c0.4682999,0,0.9237976,0.1010971,1.3510971,0.314003  C80.080101,91.455101,80.6899033,95.3730011,79.1493988,99.0653992z M79.1493988,77.0653992  C77.8964996,80.0698013,75.6063995,82,73.5619965,82c-0.4677963,0-0.9232941-0.1016006-1.3500977-0.314003  c-2.2919998-1.1415939-2.9018021-5.059494-1.3612976-8.7518997C72.1029968,69.9297028,74.3930969,68,76.4380035,68  c0.4682999,0,0.9237976,0.1010971,1.3510971,0.314003C80.080101,69.455101,80.6899033,73.3730011,79.1493988,77.0653992z   M82.0917969,60.2958984L46,80.1797028V122c0,1.1044998-0.8955002,2-2,2s-2-0.8955002-2-2V80.3314972L5.61865,60.0014992  c-0.9653301-0.5375977-1.3120098-1.7553978-0.7749-2.7201996c0.5376-0.9644012,1.75488-1.3106003,2.7202101-0.7749977  l36.2993393,20.2841949L80.1572037,56.794899c0.9682999-0.5331993,2.1840973-0.1830978,2.7177963,0.7831993  C83.4092026,58.544899,83.0586014,59.7616997,82.0917969,60.2958984z"></path><path d="M116.3383942,21.8710995c-1.4667969-4.1479988-6.0615005-8.7421999-10.2094955-10.2094994L75.0468979,0.6675  c-1.1405945-0.4033-2.415596-0.5943-3.7309952-0.5943c-3.4687042,0-7.2119064,1.3277-9.467804,3.5834999L37.6567001,27.8481007  c-1.5786018,1.5786991-2.7630997,3.9062996-3.3964005,6.3696995l0.7972984-0.3809013  C37.5049019,32.668499,40.6806984,32.0248985,44,32.0248985c0.2974014,0,0.5918007,0.0112,0.8866997,0.0214996  C46.0605011,30.7709999,47.4219017,30,48.6801987,30c0.3344002,0,0.661602,0.0531998,0.9751015,0.1646004  c1.2098999,0.4295998,1.9790001,1.6385994,2.2406998,3.2249985c0.3608017,0.1397018,0.7118988,0.2876015,1.0469017,0.4477997  l12.6220016,6.0259018C66.9237976,37.5166016,68.9052963,36,70.6801987,36  c0.3348999-0.0004997,0.6615982,0.0531998,0.9756012,0.1646004c2.1654968,0.7679977,2.9287033,4.0248985,1.8675995,7.4980011  l5.2076035,2.4862976l1.0277939-1.0375977L68.8993988,6.3115001c-0.2997971-1.0630002,0.3189011-2.1679001,1.3819046-2.4677  c1.0663986-0.2989001,2.168396,0.3188,2.4676971,1.3817997l10.9677963,39.1849976l38.9253006,11.1016006  c1.0619965,0.3031998,1.6772003,1.410202,1.373497,2.4722023c-0.2509995,0.8783989-1.0516968,1.4510994-1.9217987,1.4510994  c-0.1631012,0-31.8632965-9.0141029-38.521492-10.9081993c2.2372971,1.3344994,4.2186966,3.372097,5.6966934,5.7265968  c1.2559052,0.349102,2.1993027,1.0552025,2.5660019,2.0903015c0.3192978,0.899498,0.1591034,1.908699-0.3692017,2.8941002  C91.8061981,60.4966011,92,61.7671013,92,63.0068016v31.077198c3.0903015-0.4458008,6.1952972-1.7842026,8.1519012-3.7406998  l24.1913986-24.1913986c3.1112976-3.1114006,4.4560013-9.0508003,2.9891968-13.1988029L116.3383942,21.8710995z   M67.2353973,23.2880993C65.9657974,26.0902996,63.4818993,28,61.3193016,28c-0.3348999,0-0.661602-0.0459003-0.975502-0.1410999  c-2.3394012-0.711401-3.0454979-3.9120998-1.578701-7.147501C60.0341988,17.9097004,62.5181007,16,64.6801987,16  c0.3348999,0,0.6621017,0.0459003,0.9756012,0.1410999C67.9955978,16.8525009,68.7025986,20.0531998,67.2353973,23.2880993z   M102.2074966,37.2094994C101.6718979,37.7450981,100.9203949,38,100.051796,38  c-1.7944946,0-4.0903931-1.0858994-6.0283966-3.0238991c-2.8763962-2.8764992-3.8754959-6.5415001-2.2329025-8.1841011  C92.3275986,26.2549,93.0795975,26,93.9496994,26c1.7939987,0,4.0888977,1.0858994,6.0263977,3.0233994  C102.8529968,31.8999004,103.8525009,35.5644989,102.2074966,37.2094994z M108.5033951,69.2353973  C107.1713943,69.7528992,105.8442001,70,104.6478958,70c-2.1927948,0-3.9458008-0.830101-4.4828949-2.3432999  c-0.8300018-2.3403015,1.556694-5.4257011,5.3320999-6.8921013C106.8290939,60.2471008,108.1562958,60,109.3525009,60  c2.192894,0,3.9462967,0.8306007,4.4828949,2.3446999C114.6650009,64.6836014,112.278801,67.7689972,108.5033951,69.2353973z"></path></svg>