<svg height='300px' width='300px'  fill="#000000" xmlns="http://www.w3.org/2000/svg" xmlns:xlink="http://www.w3.org/1999/xlink" version="1.1" x="0px" y="0px" viewBox="0 0 50 50" enable-background="new 0 0 50 50" xml:space="preserve"><g><rect x="1" y="5.2" width="1.3" height="1.3"></rect><rect x="1" y="10" width="1.3" height="1.3"></rect><rect x="1" y="14.9" width="1.3" height="1.3"></rect><rect x="1" y="19.7" width="1.3" height="1.3"></rect><rect x="1" y="24.6" width="1.3" height="1.3"></rect><rect x="1" y="29.4" width="1.3" height="1.3"></rect><rect x="1" y="34.3" width="1.3" height="1.3"></rect><rect x="1" y="39.1" width="1.3" height="1.3"></rect><rect x="1" y="44" width="1.3" height="1.3"></rect><rect x="43.6" y="47.6" width="1.3" height="1.3"></rect><rect x="38.8" y="47.6" width="1.3" height="1.3"></rect><rect x="33.9" y="47.6" width="1.3" height="1.3"></rect><rect x="29.1" y="47.6" width="1.3" height="1.3"></rect><rect x="24.2" y="47.6" width="1.3" height="1.3"></rect><rect x="19.4" y="47.6" width="1.3" height="1.3"></rect><rect x="14.5" y="47.6" width="1.3" height="1.3"></rect><rect x="9.7" y="47.6" width="1.3" height="1.3"></rect><rect x="4.8" y="47.6" width="1.3" height="1.3"></rect><path d="M48.9,45.5l-2.5-1.8c-0.2-0.1-0.4,0-0.4,0.2v1H5V4.1h0.9c0.2,0,0.4-0.3,0.2-0.4L4.4,1.2C4.3,1,4,1,3.9,1.2L2.2,3.6   C2,3.8,2.2,4.1,2.4,4.1h1c0,1.9,0-10.5,0,41.9c0,0.4,0.3,0.7,0.7,0.7H46v0.8c0,0.2,0.3,0.4,0.4,0.2l2.5-1.8   C49,45.9,49,45.7,48.9,45.5z"></path><path d="M28.4,32.9l2.9-22.2C33.9,33.6,33.6,32.9,34,34l1.2-5.5l-2-18.1c-0.3-2.3-3.6-2.3-3.9,0l-2.6,20.7l0.9,4.2   C28,34.6,28.3,33.8,28.4,32.9z"></path><path d="M45.3,38.4v-1.8h-0.8C44.8,37.5,44.6,38.4,45.3,38.4z"></path><path d="M37.6,35.8c-0.3,1.2-0.2,0.9-0.5,1.9c1.8,1,3.4,0.7,3.8,0.8l-0.3-1.9C40.4,36.6,39,36.8,37.6,35.8z"></path><path d="M18.9,35.5l-0.4,2.1c1.8,1.1,4.1,1.2,5.9,0.5c-0.4-1-0.4-1.5-0.5-1.9C22.4,36.8,20.3,36.8,18.9,35.5z"></path><path d="M6,38.4h0.2c2.7-0.3,5-2.5,5.3-5.3l2-14.9l2,14.2l1.2-5.5L15.4,18c-0.3-2.3-3.6-2.2-3.9,0L9.6,32.9   c-0.2,1.9-1.8,3.4-3.6,3.6V38.4z"></path><path d="M12.7,39.4H6v1.9h6.7c2.3,0,4.2-1.6,4.7-3.8l2.8-13.3c0.2-1.1,1.9-1.1,2.1,0l2.5,12.4c1.3,6.2,10.1,6.4,11.5,0.3l1.8-8.1   c0.3-1.2,1.9-1.1,2.1,0l1.7,9.7c0.3,1.7,1.7,2.9,3.4,2.9v-1.9c-0.8,0-1.4-0.5-1.5-1.3l-1.7-9.7c-0.6-3.2-5.2-3.4-5.9-0.1l-1.8,8.1   c-0.9,4.1-6.9,3.9-7.7-0.2l-2.5-12.4c-0.6-3.2-5.2-3.2-5.9,0l-2.8,13.3C15.2,38.5,14.1,39.4,12.7,39.4z"></path></g></svg>