<svg height='300px' width='300px'  fill="#000000" xmlns:x="http://ns.adobe.com/Extensibility/1.0/" xmlns:i="http://ns.adobe.com/AdobeIllustrator/10.0/" xmlns:graph="http://ns.adobe.com/Graphs/1.0/" xmlns="http://www.w3.org/2000/svg" xmlns:xlink="http://www.w3.org/1999/xlink" version="1.1" x="0px" y="0px" viewBox="0 0 100 100" enable-background="new 0 0 100 100" xml:space="preserve"><metadata><sfw xmlns="http://ns.adobe.com/SaveForWeb/1.0/"><slices></slices><sliceSourceBounds width="1445.9" height="1445.9" x="2.9" y="-1447.6" bottomLeftOrigin="true"></sliceSourceBounds></sfw></metadata><path d="M3.6,54.4c0-23.2,18.8-42,42-42v42h42c0,23.2-18.8,42-42,42C22.4,96.4,3.6,77.6,3.6,54.4z M96.4,45.6h-42v-42  C77.6,3.6,96.4,22.4,96.4,45.6z M62.4,16.7l3.3-3.3c-1.1-0.4-2.1-0.7-3.3-1V16.7z M62.4,26.1l9.6-9.6c-1.1-0.6-2.1-1.2-3.3-1.8  l-6.3,6.3V26.1z M62.4,35.4l14.9-14.9c-0.9-0.8-1.8-1.6-2.7-2.3L62.4,30.4V35.4z M69.6,37.6l12.2-12.2c-0.7-1-1.5-1.9-2.3-2.7  L64.6,37.6H69.6z M79,37.6l6.3-6.3c-0.5-1.1-1.1-2.2-1.8-3.3l-9.6,9.6H79z M83.3,37.6h4.2c-0.3-1.1-0.6-2.2-1-3.2L83.3,37.6z"></path></svg>